<svg class="header__logo__figure--desktop" focusable="false" aria-hidden="true" xmlns="http://www.w3.org/2000/svg" viewBox="0 0 211.5 96.4"><path d="M22.9 2.2c2.1-.4 4.9-.7 8.4-.7 4.3 0 7.5 1 9.5 2.8 1.9 1.6 3 4.1 3 7.1 0 3.1-.9 5.5-2.6 7.2-2.3 2.5-6.1 3.7-10.3 3.7-1.3 0-2.5-.1-3.5-.3v13.5H23V2.2zm4.4 16.3c1 .3 2.2.4 3.6.4 5.3 0 8.5-2.6 8.5-7.2 0-4.5-3.2-6.6-8-6.6-1.9 0-3.4.2-4.1.4v13zM46.7 0h4.4v15.1h.1c.7-1.3 1.8-2.4 3.2-3.1 1.3-.8 2.9-1.3 4.5-1.3 3.3 0 8.5 2 8.5 10.4v14.4H63V21.6c0-3.9-1.5-7.2-5.6-7.2-2.9 0-5.1 2-5.9 4.4-.3.6-.3 1.3-.3 2.1v14.6h-4.4V0zM72.9 11.3l5.3 14.3c.6 1.6 1.2 3.5 1.6 5h.1c.5-1.5 1-3.3 1.6-5.1l4.8-14.2H91l-6.6 17.3C81.2 36.9 79 41.2 76 43.8c-2.2 1.9-4.3 2.7-5.4 2.9L69.5 43c1.1-.4 2.6-1.1 3.9-2.2 1.2-1 2.7-2.7 3.7-4.9.2-.5.4-.8.4-1.1s-.1-.6-.3-1.2l-9-22.3h4.7zM91.5 31c1.3.9 3.6 1.8 5.8 1.8 3.2 0 4.7-1.6 4.7-3.6 0-2.1-1.3-3.3-4.5-4.5-4.4-1.6-6.4-4-6.4-6.9 0-3.9 3.2-7.1 8.4-7.1 2.5 0 4.6.7 6 1.5l-1.1 3.2c-1-.6-2.7-1.4-5-1.4-2.6 0-4.1 1.5-4.1 3.3 0 2 1.5 2.9 4.6 4.1 4.2 1.6 6.4 3.7 6.4 7.3 0 4.3-3.3 7.3-9.1 7.3-2.7 0-5.1-.7-6.8-1.7l1.1-3.3zM114.4 4.5c0 1.5-1.1 2.7-2.8 2.7-1.6 0-2.7-1.2-2.7-2.7 0-1.6 1.2-2.8 2.8-2.8 1.6.1 2.7 1.3 2.7 2.8zm-4.9 31V11.3h4.4v24.2h-4.4zM136 34.6c-1.2.6-3.7 1.5-7 1.5-7.3 0-12.1-5-12.1-12.4 0-7.5 5.1-12.9 13-12.9 2.6 0 4.9.7 6.1 1.3l-1 3.4c-1.1-.6-2.7-1.2-5.1-1.2-5.6 0-8.6 4.1-8.6 9.2 0 5.6 3.6 9.1 8.4 9.1 2.5 0 4.2-.7 5.4-1.2l.9 3.2zM144.6 4.5c.1 1.5-1.1 2.7-2.8 2.7-1.6 0-2.7-1.2-2.7-2.7 0-1.6 1.2-2.8 2.8-2.8 1.6.1 2.7 1.3 2.7 2.8zm-4.9 31V11.3h4.4v24.2h-4.4zM166 29.7c0 2.1.1 4.2.4 5.8h-4l-.4-3.1h-.2c-1.4 1.9-4 3.6-7.4 3.6-4.9 0-7.4-3.5-7.4-7 0-5.9 5.2-9.1 14.6-9v-.5c0-2-.6-5.6-5.5-5.6-2.3 0-4.6.7-6.3 1.8l-1-2.9c2-1.3 4.9-2.2 8-2.2 7.4 0 9.2 5.1 9.2 9.9v9.2zm-4.3-6.5c-4.8-.1-10.3.8-10.3 5.5 0 2.9 1.9 4.2 4.2 4.2 3.2 0 5.2-2 5.9-4.1.2-.5.2-1 .2-1.4v-4.2zM170.6 17.9c0-2.5 0-4.6-.2-6.6h3.9l.2 4h.1c1.2-2.3 4-4.6 8-4.6 3.4 0 8.6 2 8.6 10.3v14.5h-4.4v-14c0-3.9-1.5-7.2-5.6-7.2-2.9 0-5.2 2.1-5.9 4.5-.2.6-.3 1.3-.3 2.1v14.6h-4.4V17.9zM195.3 31c1.3.9 3.6 1.8 5.8 1.8 3.2 0 4.7-1.6 4.7-3.6 0-2.1-1.3-3.3-4.5-4.5-4.4-1.6-6.4-4-6.4-6.9 0-3.9 3.2-7.1 8.4-7.1 2.5 0 4.6.7 6 1.5l-1.1 3.2c-1-.6-2.7-1.4-5-1.4-2.6 0-4.1 1.5-4.1 3.3 0 2 1.5 2.9 4.6 4.1 4.2 1.6 6.4 3.7 6.4 7.3 0 4.3-3.3 7.3-9.1 7.3-2.7 0-5.1-.7-6.8-1.7l1.1-3.3z" fill="#005978"></path><path d="M25.6 73.2c-1.6.8-4.8 1.7-8.9 1.7C7.2 74.9 0 68.8 0 57.7 0 47.2 7.2 40 17.6 40c4.2 0 6.9.9 8 1.5l-1.1 3.6c-1.7-.8-4-1.4-6.8-1.4-7.9 0-13.2 5.1-13.2 13.9 0 8.3 4.8 13.6 13 13.6 2.7 0 5.4-.6 7.1-1.4l1 3.4z" fill="#80aac4"></path><path d="M49 62.1c0 8.9-6.2 12.7-12 12.7-6.5 0-11.5-4.8-11.5-12.3 0-8 5.2-12.7 11.9-12.7 6.9 0 11.6 5 11.6 12.3zm-19 .3c0 5.2 3 9.2 7.3 9.2 4.2 0 7.3-3.9 7.3-9.3 0-4.1-2-9.2-7.2-9.2S30 57.8 30 62.4zM52.1 56.8c0-2.5 0-4.5-.2-6.5h3.8l.2 3.9h.1c1.3-2.3 3.6-4.4 7.5-4.4 3.3 0 5.7 2 6.8 4.8h.1c.7-1.3 1.7-2.4 2.7-3.1 1.4-1.1 3-1.7 5.3-1.7 3.2 0 7.9 2.1 7.9 10.4v14.1H82V60.7c0-4.6-1.7-7.4-5.2-7.4-2.5 0-4.4 1.8-5.1 4-.2.6-.3 1.4-.3 2.2v14.8h-4.3V59.9c0-3.8-1.7-6.6-5-6.6-2.7 0-4.7 2.2-5.4 4.4-.2.6-.3 1.4-.3 2.1v14.5h-4.3V56.8zM90.9 56.8c0-2.5 0-4.5-.2-6.5h3.8l.2 3.9h.1c1.3-2.3 3.6-4.4 7.5-4.4 3.3 0 5.7 2 6.8 4.8h.1c.7-1.3 1.7-2.4 2.7-3.1 1.4-1.1 3-1.7 5.3-1.7 3.2 0 7.9 2.1 7.9 10.4v14.1h-4.3V60.7c0-4.6-1.7-7.4-5.2-7.4-2.5 0-4.4 1.8-5.1 4-.2.6-.3 1.4-.3 2.2v14.8h-4.3V59.9c0-3.8-1.7-6.6-5-6.6-2.7 0-4.7 2.2-5.4 4.4-.2.6-.3 1.4-.3 2.1v14.5h-4.3V56.8zM134.7 43.6c0 1.5-1 2.7-2.8 2.7-1.5 0-2.6-1.2-2.6-2.7 0-1.5 1.1-2.7 2.7-2.7s2.7 1.2 2.7 2.7zm-4.9 30.7v-24h4.4v24h-4.4zM145.2 44.6v5.7h6.2v3.3h-6.2v12.9c0 3 .8 4.7 3.3 4.7 1.2 0 1.9-.1 2.5-.3l.2 3.3c-.8.3-2.2.6-3.9.6-2 0-3.7-.7-4.7-1.9-1.2-1.3-1.7-3.4-1.7-6.2v-13h-3.7v-3.3h3.7V46l4.3-1.4z" fill="#80aac4"></path><path d="M159.1 44.6v5.7h6.2v3.3h-6.2v12.9c0 3 .8 4.7 3.3 4.7 1.2 0 1.9-.1 2.5-.3l.2 3.3c-.8.3-2.2.6-3.9.6-2 0-3.7-.7-4.7-1.9-1.2-1.3-1.7-3.4-1.7-6.2v-13h-3.7v-3.3h3.7V46l4.3-1.4zM169.9 63.1c.1 5.9 3.9 8.3 8.2 8.3 3.1 0 5-.5 6.6-1.2l.7 3.1c-1.5.7-4.2 1.5-8 1.5-7.4 0-11.8-4.9-11.8-12.1s4.3-12.9 11.2-12.9c7.8 0 9.9 6.9 9.9 11.3 0 .9-.1 1.6-.1 2h-16.7zm12.7-3.1c0-2.8-1.1-7.1-6-7.1-4.4 0-6.3 4.1-6.7 7.1h12.7zM193.2 63.1c.1 5.9 3.9 8.3 8.2 8.3 3.1 0 5-.5 6.6-1.2l.7 3.1c-1.5.7-4.2 1.5-8 1.5-7.4 0-11.8-4.9-11.8-12.1s4.3-12.9 11.2-12.9c7.8 0 9.9 6.9 9.9 11.3 0 .9-.1 1.6-.1 2h-16.7zM206 60c0-2.8-1.1-7.1-6-7.1-4.4 0-6.3 4.1-6.7 7.1H206z" fill="#80aac4"></path><path d="M42.6 93.1v-7h-1.1V85h1.1v-.4c0-1.1.3-2.2.9-2.8.6-.5 1.3-.8 2-.8.5 0 1 .1 1.3.2l-.2 1.1c-.2-.1-.5-.2-.9-.2-1.3 0-1.6 1.1-1.6 2.3v.4h2v1.1h-2v7h-1.5zM54.2 89c0 3-2.1 4.3-4 4.3-2.2 0-3.9-1.6-3.9-4.2 0-2.7 1.8-4.3 4-4.3 2.4.1 3.9 1.8 3.9 4.2zm-6.4.1c0 1.8 1 3.1 2.5 3.1 1.4 0 2.5-1.3 2.5-3.1 0-1.4-.7-3.1-2.4-3.1-1.8 0-2.6 1.6-2.6 3.1zM55.9 87.6c0-1 0-1.8-.1-2.5h1.3l.1 1.6h.1c.4-1.1 1.3-1.8 2.2-1.8h.4v1.4c-.2 0-.3-.1-.5-.1-1 0-1.8.8-2 1.9 0 .2-.1.4-.1.7v4.3h-1.5v-5.5zM64.7 82c.7-.2 1.8-.2 2.8-.2 1.6 0 2.6.3 3.3.9.6.5.9 1.3.9 2.1 0 1.5-.9 2.5-2.1 2.9.9.3 1.4 1.1 1.7 2.3.4 1.6.6 2.7.9 3.1h-1.5c-.2-.3-.4-1.3-.8-2.7-.3-1.6-.9-2.1-2.3-2.2h-1.4v4.9h-1.5V82zm1.4 5.2h1.5c1.6 0 2.5-.9 2.5-2.1 0-1.5-1.1-2.1-2.6-2.1-.7 0-1.2.1-1.4.1v4.1zM74.3 89.4c0 2 1.3 2.8 2.8 2.8 1.1 0 1.7-.2 2.2-.4l.3 1.1c-.5.2-1.4.5-2.7.5-2.5 0-4-1.7-4-4.1s1.4-4.4 3.8-4.4c2.6 0 3.3 2.3 3.3 3.8v.7h-5.7zm4.3-1.1c0-.9-.4-2.4-2-2.4-1.5 0-2.1 1.4-2.3 2.4h4.3zM81.5 91.6c.4.3 1.2.6 1.9.6 1.1 0 1.6-.5 1.6-1.2s-.4-1.1-1.5-1.5c-1.5-.5-2.1-1.3-2.1-2.3 0-1.3 1.1-2.4 2.8-2.4.8 0 1.5.2 2 .5l-.4 1.1c-.3-.2-.9-.5-1.7-.5-.9 0-1.4.5-1.4 1.1 0 .7.5 1 1.5 1.4 1.4.5 2.1 1.2 2.1 2.4 0 1.4-1.1 2.4-3 2.4-.9 0-1.7-.2-2.3-.6l.5-1zM88.1 87.7c0-1 0-1.9-.1-2.6h1.3l.1 1.4c.6-1 1.6-1.6 2.9-1.6 2 0 3.4 1.7 3.4 4.1 0 2.9-1.8 4.3-3.7 4.3-1.1 0-2-.5-2.5-1.3v4.4H88v-8.7zm1.5 2.2c0 .2 0 .4.1.6.3 1 1.2 1.7 2.2 1.7 1.6 0 2.5-1.3 2.5-3.1 0-1.6-.9-3-2.4-3-1 0-1.9.7-2.2 1.8 0 .2-.1.4-.1.6v1.4zM104.8 89c0 3-2.1 4.3-4 4.3-2.2 0-3.9-1.6-3.9-4.2 0-2.7 1.8-4.3 4-4.3 2.3.1 3.9 1.8 3.9 4.2zm-6.4.1c0 1.8 1 3.1 2.5 3.1 1.4 0 2.5-1.3 2.5-3.1 0-1.4-.7-3.1-2.4-3.1-1.9 0-2.6 1.6-2.6 3.1zM106.5 87.2c0-.8 0-1.5-.1-2.2h1.3l.1 1.3c.4-.8 1.3-1.5 2.7-1.5 1.1 0 2.9.7 2.9 3.4V93h-1.5v-4.7c0-1.3-.5-2.4-1.9-2.4-1 0-1.7.7-2 1.5-.1.2-.1.4-.1.7V93h-1.5v-5.8zM115.4 91.6c.4.3 1.2.6 1.9.6 1.1 0 1.6-.5 1.6-1.2s-.4-1.1-1.5-1.5c-1.5-.5-2.1-1.3-2.1-2.3 0-1.3 1.1-2.4 2.8-2.4.8 0 1.5.2 2 .5l-.4 1.1c-.3-.2-.9-.5-1.7-.5-.9 0-1.4.5-1.4 1.1 0 .7.5 1 1.5 1.4 1.4.5 2.1 1.2 2.1 2.4 0 1.4-1.1 2.4-3 2.4-.9 0-1.7-.2-2.3-.6l.5-1zM123.7 82.8c0 .5-.4.9-.9.9s-.9-.4-.9-.9.4-.9.9-.9.9.4.9.9zm-1.6 10.3V85h1.5v8.1h-1.5zM125.8 81.3h1.5v5.1c.5-.9 1.5-1.5 2.8-1.5 2 0 3.4 1.7 3.4 4.1 0 2.9-1.8 4.3-3.6 4.3-1.2 0-2.1-.5-2.7-1.5l-.1 1.3h-1.3c0-.6.1-1.4.1-2.1v-9.7zm1.5 8.6c0 .2 0 .4.1.5.3 1 1.1 1.7 2.2 1.7 1.5 0 2.5-1.3 2.5-3.1 0-1.6-.8-3-2.4-3-1 0-1.9.7-2.2 1.8 0 .2-.1.4-.1.6v1.5zM135.2 81.3h1.5v11.9h-1.5V81.3zM139.8 89.4c0 2 1.3 2.8 2.8 2.8 1.1 0 1.7-.2 2.2-.4l.2 1.1c-.5.2-1.4.5-2.7.5-2.5 0-4-1.7-4-4.1s1.4-4.4 3.8-4.4c2.6 0 3.3 2.3 3.3 3.8 0 .3 0 .5-.1.7h-5.5zm4.3-1.1c0-.9-.4-2.4-2-2.4-1.5 0-2.1 1.4-2.3 2.4h4.3zM160.1 88.2c-.1-1.6-.2-3.5-.2-4.9-.4 1.3-.9 2.7-1.4 4.3l-2 5.5h-1.1l-1.8-5.4c-.5-1.6-1-3-1.3-4.4 0 1.4-.1 3.3-.2 5l-.3 4.8h-1.4l.8-11.3h1.9l1.9 5.4c.5 1.4.9 2.6 1.1 3.8h.1c.3-1.1.7-2.4 1.2-3.8l2-5.4h1.9l.7 11.3h-1.4l-.5-4.9zM164.7 89.4c0 2 1.3 2.8 2.8 2.8 1.1 0 1.7-.2 2.2-.4l.2 1.1c-.5.2-1.4.5-2.7.5-2.5 0-4-1.7-4-4.1s1.4-4.4 3.8-4.4c2.6 0 3.3 2.3 3.3 3.8 0 .3 0 .5-.1.7h-5.5zm4.3-1.1c0-.9-.4-2.4-2-2.4-1.5 0-2.1 1.4-2.3 2.4h4.3zM179.1 81.3v9.8c0 .7 0 1.5.1 2.1h-1.3l-.1-1.4c-.5.9-1.4 1.6-2.8 1.6-2 0-3.5-1.7-3.5-4.1 0-2.7 1.7-4.3 3.6-4.3 1.2 0 2.1.6 2.4 1.2v-4.8h1.6zm-1.5 7.1c0-.2 0-.4-.1-.6-.2-.9-1-1.7-2.1-1.7-1.5 0-2.4 1.3-2.4 3.1 0 1.6.8 3 2.4 3 1 0 1.9-.7 2.2-1.8.1-.2.1-.4.1-.6v-1.4zM183 82.8c0 .5-.4.9-.9.9s-.9-.4-.9-.9.4-.9.9-.9c.6 0 .9.4.9.9zm-1.6 10.3V85h1.5v8.1h-1.5zM190.5 92.8c-.4.2-1.2.5-2.3.5-2.4 0-4-1.7-4-4.1 0-2.5 1.7-4.3 4.3-4.3.9 0 1.6.2 2 .4l-.3 1.1c-.4-.2-.9-.4-1.7-.4-1.9 0-2.9 1.4-2.9 3.1 0 1.9 1.2 3 2.8 3 .8 0 1.4-.2 1.8-.4l.3 1.1zM193.7 82.8c0 .5-.4.9-.9.9s-.9-.4-.9-.9.4-.9.9-.9c.6 0 .9.4.9.9zm-1.6 10.3V85h1.5v8.1h-1.5zM195.9 87.2c0-.8 0-1.5-.1-2.2h1.3l.1 1.3c.4-.8 1.3-1.5 2.7-1.5 1.1 0 2.9.7 2.9 3.4V93h-1.5v-4.7c0-1.3-.5-2.4-1.9-2.4-1 0-1.7.7-2 1.5-.1.2-.1.4-.1.7V93h-1.5v-5.8zM205.8 89.4c0 2 1.3 2.8 2.8 2.8 1.1 0 1.7-.2 2.2-.4l.2 1.1c-.5.2-1.4.5-2.7.5-2.5 0-4-1.7-4-4.1s1.4-4.4 3.8-4.4c2.6 0 3.3 2.3 3.3 3.8 0 .3 0 .5-.1.7h-5.5zm4.3-1.1c0-.9-.4-2.4-2-2.4-1.5 0-2.1 1.4-2.3 2.4h4.3z" fill="#005978"></path></svg>