<?xml version="1.0" encoding="UTF-8"?>
<svg xmlns="http://www.w3.org/2000/svg" xmlns:xlink="http://www.w3.org/1999/xlink" width="170pt" height="170pt" viewBox="0 0 170 170" version="1.1">
<g id="surface1">
<path style=" stroke:none;fill-rule:nonzero;fill:rgb(0%,42.745098%,94.117647%);fill-opacity:1;" d="M 5.742188 90.742188 C 8.847656 90.742188 11.484375 88.257812 11.484375 85 C 11.484375 64.980469 19.554688 46.976562 32.746094 33.785156 C 45.785156 20.746094 63.941406 12.523438 83.960938 12.523438 C 98.707031 12.523438 112.675781 17.023438 124.316406 24.78125 C 132.074219 30.058594 138.75 36.734375 144.023438 44.648438 L 137.507812 42.164062 C 134.558594 41.078125 131.296875 42.476562 130.210938 45.425781 C 129.125 48.371094 130.523438 51.632812 133.472656 52.71875 L 153.957031 60.789062 C 155.355469 61.410156 156.90625 61.410156 158.304688 60.789062 C 159.855469 60.167969 160.941406 58.925781 161.5625 57.375 L 169.632812 36.886719 C 170.71875 33.9375 169.324219 30.679688 166.375 29.59375 C 163.425781 28.507812 160.164062 29.902344 159.078125 32.851562 L 155.664062 41.699219 C 149.300781 31.144531 140.765625 22.300781 130.679688 15.625 C 117.175781 6.46875 101.035156 1.347656 83.960938 1.347656 C 60.839844 1.347656 39.886719 10.660156 24.832031 25.867188 C 9.46875 40.921875 0 61.875 0 85 C 0 88.105469 2.636719 90.742188 5.742188 90.742188 Z M 5.742188 90.742188 "/>
<path style=" stroke:none;fill-rule:nonzero;fill:rgb(0%,42.745098%,94.117647%);fill-opacity:1;" d="M 164.046875 79.257812 C 160.941406 79.257812 158.304688 81.742188 158.304688 85 C 158.304688 105.019531 150.234375 123.023438 137.042969 136.214844 C 124.003906 149.253906 105.847656 157.476562 85.824219 157.476562 C 71.082031 157.476562 57.113281 152.976562 45.472656 145.21875 C 37.714844 139.941406 31.039062 133.265625 25.761719 125.351562 L 32.28125 127.992188 C 35.230469 129.078125 38.488281 127.679688 39.574219 124.730469 C 40.664062 121.78125 39.265625 118.523438 36.316406 117.4375 L 15.832031 109.367188 C 14.433594 108.746094 12.882812 108.746094 11.484375 109.367188 C 9.933594 109.988281 8.847656 111.230469 8.226562 112.78125 L 0.464844 133.113281 C -0.621094 136.0625 0.777344 139.320312 3.726562 140.40625 C 6.671875 141.492188 9.933594 140.097656 11.019531 137.148438 L 14.433594 128.300781 C 20.796875 138.855469 29.332031 147.699219 39.421875 154.375 C 52.921875 163.53125 69.0625 168.652344 86.136719 168.652344 C 109.261719 168.652344 130.210938 159.339844 145.265625 144.132812 C 160.476562 128.921875 169.789062 108.125 169.789062 85 C 169.789062 81.894531 167.148438 79.257812 164.046875 79.257812 Z M 164.046875 79.257812 "/>
<path style=" stroke:none;fill-rule:nonzero;fill:rgb(0%,42.745098%,94.117647%);fill-opacity:1;" d="M 48.886719 121.316406 L 121.054688 121.316406 C 121.054688 106.417969 108.949219 94.3125 94.050781 94.3125 L 75.738281 94.3125 C 60.992188 94.3125 48.886719 106.417969 48.886719 121.316406 Z M 48.886719 121.316406 "/>
<path style=" stroke:none;fill-rule:nonzero;fill:rgb(0%,42.745098%,94.117647%);fill-opacity:1;" d="M 103.671875 67.460938 C 103.671875 77.832031 95.265625 86.242188 84.894531 86.242188 C 74.523438 86.242188 66.113281 77.832031 66.113281 67.460938 C 66.113281 57.089844 74.523438 48.683594 84.894531 48.683594 C 95.265625 48.683594 103.671875 57.089844 103.671875 67.460938 Z M 103.671875 67.460938 "/>
</g>
</svg>
